<?xml version="1.0" encoding="UTF-8" standalone="no" ?>
<!DOCTYPE svg PUBLIC "-//W3C//DTD SVG 1.1//EN" "http://www.w3.org/Graphics/SVG/1.1/DTD/svg11.dtd">
<svg xmlns="http://www.w3.org/2000/svg" xmlns:xlink="http://www.w3.org/1999/xlink" version="1.1" width="640" height="480" viewBox="0 0 640 480" xml:space="preserve">
<desc>Created with Fabric.js 3.6.6</desc>
<defs>
</defs>
<g transform="matrix(8.01 0 0 8.01 319.78 245.22)"  >
<path style="stroke: none; stroke-width: 1; stroke-dasharray: none; stroke-linecap: butt; stroke-dashoffset: 0; stroke-linejoin: miter; stroke-miterlimit: 4; fill: rgb(112,101,240); fill-rule: nonzero; opacity: 1;"  transform=" translate(-25, -30)" d="m 5 10 c -1.652344 0 -3 1.347656 -3 3 v 13.8125 c 1.296875 -1.125 2.9375 -2.035156 5 -2.75 v -4.0625 c 0 -2.660156 4.542969 -3 8.5 -3 s 8.5 0.339844 8.5 3 v 2 c 0.335938 -0.003906 0.65625 0 1 0 s 0.664063 -0.003906 1 0 v -2 c 0 -2.660156 4.542969 -3 8.5 -3 s 8.5 0.339844 8.5 3 v 4.03125 c 2.058594 0.710938 3.691406 1.640625 5 2.78125 v -13.8125 c 0 -1.652344 -1.347656 -3 -3 -3 z m 20 14 c -19.09375 0 -25.015625 3.53125 -25 13 h 50 c 0.015625 -9.53125 -5.90625 -13 -25 -13 z m -25 15 v 11 h 7 v -4 c 0 -1.4375 0.5625 -2 2 -2 h 32 c 1.4375 0 2 0.5625 2 2 v 4 h 7 v -11 z" stroke-linecap="round" />
</g>
</svg>